<?xml version="1.0" encoding="utf-8"?>
<!-- Generator: Adobe Illustrator 22.1.0, SVG Export Plug-In . SVG Version: 6.00 Build 0)  -->
<svg version="1.1" id="Ebene_1" xmlns="http://www.w3.org/2000/svg" xmlns:xlink="http://www.w3.org/1999/xlink" x="0px" y="0px"
	 viewBox="0 0 36 36" xml:space="preserve">
<title>36x36_Pfeil_Rechts</title>
<desc>Created with Sketch.</desc>
<g id="Icon-36x36">
	<g id="_x33_6x36_x5F_Pfeil_x5F_Rechts">
		
			<g id="Pfeil_Rechts_36x36" transform="translate(18.500000, 18.000000) scale(1, -1) rotate(-90.000000) translate(-18.500000, -18.000000) translate(3.000000, 9.000000)">
			<path id="Combined-Shape" fill="#0045B9" d="M15.4,12.4L27.3,0.5c0.7-0.7,1.6-0.7,2.3,0l0.8,0.8c0.7,0.7,0.7,1.6,0,2.3L16.6,17.3
				c-0.1,0.1-0.2,0.2-0.3,0.2c-0.3,0.2-0.6,0.3-0.9,0.3c-0.3,0-0.6-0.1-0.9-0.3c-0.1-0.1-0.2-0.1-0.3-0.2L0.5,3.5
				c-0.7-0.7-0.7-1.6,0-2.3l0.8-0.8c0.7-0.7,1.6-0.7,2.3,0L15.4,12.4z"/>
		</g>
	</g>
</g>
</svg>
