<?xml version="1.0" encoding="utf-8"?>
<!-- Generator: Adobe Illustrator 22.1.0, SVG Export Plug-In . SVG Version: 6.00 Build 0)  -->
<svg version="1.1" id="Ebene_1" xmlns="http://www.w3.org/2000/svg" xmlns:xlink="http://www.w3.org/1999/xlink" x="0px" y="0px"
	 viewBox="0 0 36 36" xml:space="preserve">
<title>36x36_Download</title>
<desc>Created with Sketch.</desc>
<g id="Icon-36x36">
	<g id="_x33_6x36_x5F_Download">
		<g id="Download_36x36" transform="translate(4.000000, 0.000000)">
			<path id="Fill-1" fill="#0054E2" d="M19.6,9.6c-0.7,0-1.3,0.5-1.3,1.2s0.6,1.2,1.3,1.2h6.7v21.5H2.5V12h6.7c0.7,0,1.3-0.5,1.3-1.2
				S9.9,9.6,9.2,9.6H0V36h28.8V9.6H19.6z"/>
			<path id="Fill-4" fill="#0054E2" d="M8.4,16.7c-0.3,0-0.6,0.1-0.9,0.4c-0.5,0.5-0.5,1.3,0,1.8l5.9,6c0.2,0.2,0.5,0.4,0.8,0.4l0.1,0
				c0.4,0,0.7-0.2,1-0.5l5.9-5.9c0.5-0.5,0.5-1.3,0-1.8c-0.2-0.2-0.6-0.4-0.9-0.4c-0.3,0-0.6,0.1-0.9,0.4l-3.8,3.8V1.3
				c0-0.7-0.6-1.3-1.2-1.3c-0.7,0-1.2,0.6-1.2,1.3v19.7l-3.8-3.8C9.1,16.9,8.8,16.7,8.4,16.7z"/>
		</g>
	</g>
</g>
</svg>
