<?xml version="1.0" encoding="utf-8"?>
<!-- Generator: Adobe Illustrator 22.1.0, SVG Export Plug-In . SVG Version: 6.00 Build 0)  -->
<svg version="1.1" id="Ebene_1" xmlns="http://www.w3.org/2000/svg" xmlns:xlink="http://www.w3.org/1999/xlink" x="0px" y="0px"
	 viewBox="0 0 36 36" xml:space="preserve">
<title>36x36_Download</title>
<desc>Created with Sketch.</desc>
<path id="Fill-1_1_" fill="#fff" d="M30.8,21.5c0-0.7-0.5-1.3-1.2-1.3s-1.2,0.6-1.2,1.3l-0.1,12.1H4.5V12h14.6
	c0.7,0,1.3-0.5,1.3-1.2s-0.6-1.2-1.3-1.2H2V36h28.8V21.5z"/>
<path id="Fill-4" fill="#fff" d="M31.8,16.8c0.2,0.2,0.6,0.4,0.9,0.4c0.7,0,1.2-0.6,1.2-1.2l0-8.4c0-0.3-0.1-0.6-0.3-0.9l0,0
	c-0.3-0.3-0.6-0.4-1-0.3l-8.3,0c-0.7,0-1.2,0.6-1.2,1.2c0,0.3,0.1,0.6,0.4,0.9c0.2,0.2,0.6,0.4,0.9,0.4l5.4,0L15.8,22.6
	c-0.5,0.5-0.5,1.3,0,1.8c0.5,0.5,1.3,0.5,1.8,0l13.9-13.9l0,5.4C31.5,16.2,31.6,16.6,31.8,16.8z"/>
</svg>
