<?xml version="1.0" encoding="utf-8"?>
<!-- Generator: Adobe Illustrator 23.0.1, SVG Export Plug-In . SVG Version: 6.00 Build 0)  -->
<svg version="1.1" id="Ebene_1" xmlns="http://www.w3.org/2000/svg" xmlns:xlink="http://www.w3.org/1999/xlink" x="0px" y="0px"
	 viewBox="0 0 466.5 236.7" xml:space="preserve">
<path fill="#444" d="M234.6,74.9c-24.8-0.3-44.3,18.6-44.6,43.3c-0.2,23.3,19,43.2,42,43.4c24.7,0.3,44.5-18.7,44.7-42.9
	C277,95.2,257.7,75.2,234.6,74.9z"/>
<path fill="#444" d="M440.9,102.2c-29.8-29.6-68-53.1-115.3-70.2c-23.8-8.6-49.2-14.3-76.4-16.1c-36.3-2.3-70.1,3.4-102,14.1
	C107.5,43.3,74.5,62,46.3,84.5c-10.6,8.4-20.2,17.3-27.4,27.1c-1.7,2.3-4.5,6.8-4.5,6.8s2.4,5,4.4,7.6c2.5,3.2,4.9,6.4,7.9,9.4
	c29.1,29,66.8,52,113.2,68.9c28.9,10.5,59.8,16.8,93.2,17c0.1,0.3,0.1-0.3,0.2,0c14.7,0.1,28.7-1.5,42.7-3.7
	c33.9-5.3,63.7-16.1,91.1-30C396,173,420.9,156,441,135.9c6-6,12.9-17.5,12.9-17.5S446.5,107.7,440.9,102.2z M233.2,190.2
	c-49.1,0-88.8-32.1-88.8-71.9s39.6-71.8,88.8-71.9c49.3-0.1,89.2,31.9,89.2,71.6C322.5,158.2,283,190.2,233.2,190.2z"/>
</svg>
