<svg xmlns="http://www.w3.org/2000/svg" viewBox="0 0 146.69 91.24">
	<title>passwordElement 1</title>
	<g id="Ebene_2" data-name="Ebene 2">
		<g id="Ebene_1-2" data-name="Ebene 1">
			<path fill="#32d7f5" class="cls-1" d="M108.36,49.16V37.56h-.08a67.06,67.06,0,0,1-8.17,11.6Zm6.14-19.58V49.16h4.1v5.1h-4.1v7.41h-6.14V54.26H93.83v-5.1a70.22,70.22,0,0,0,13-19.58Z"/>
			<line fill="none" stroke-linecap="round" stroke="#32d7f5" stroke-miterlimit="10" stroke-width="5.35px" x1="28.09" y1="56.97" x2="39.55" y2="45.51"/>
			<line fill="none" stroke-linecap="round" stroke="#32d7f5" stroke-miterlimit="10" stroke-width="5.35px" x1="28.09" y1="56.97" x2="39.55" y2="45.51"/>
			<line fill="none" stroke-linecap="round" stroke="#32d7f5" stroke-miterlimit="10" stroke-width="5.35px" x1="39.55" y1="56.97" x2="28.09" y2="45.51"/>
			<line fill="none" stroke-linecap="round" stroke="#32d7f5" stroke-miterlimit="10" stroke-width="5.35px" x1="51.76" y1="56.97" x2="63.22" y2="45.51"/>
			<line fill="none" stroke-linecap="round" stroke="#32d7f5" stroke-miterlimit="10" stroke-width="5.35px" x1="51.76" y1="56.97" x2="63.22" y2="45.51"/>
			<line fill="none" stroke-linecap="round" stroke="#32d7f5" stroke-miterlimit="10" stroke-width="5.35px" x1="63.22" y1="56.97" x2="51.76" y2="45.51"/>
			<line fill="none" stroke-linecap="round" stroke="#32d7f5" stroke-miterlimit="10" stroke-width="5.35px" x1="75.43" y1="56.97" x2="86.89" y2="45.51"/>
			<line fill="none" stroke-linecap="round" stroke="#32d7f5" stroke-miterlimit="10" stroke-width="5.35px" x1="75.43" y1="56.97" x2="86.89" y2="45.51"/>
			<line fill="none" stroke-linecap="round" stroke="#32d7f5" stroke-miterlimit="10" stroke-width="5.35px" x1="86.89" y1="56.97" x2="75.43" y2="45.51"/>
			<path fill="none" stroke-linecap="round" stroke="#0046b9" stroke-linejoin="round" stroke-width="11.34px" d="M141,65.17V5.84m0,0L5.67,5.67V85.58H141"/>
		</g>
	</g>
</svg>