<svg xmlns="http://www.w3.org/2000/svg" viewBox="0 0 108.79 163.21">
    <title>letter1Element 1</title>
    <g id="Ebene_2" data-name="Ebene 2">
        <g id="Ebene_1-2" data-name="Ebene 1">
            <path fill="none" stroke-width="8.66px" stroke="#fff" stroke-miterlimit="10" d="M66.07,80.51A30.53,30.53,0,1,1,82.54,40.6,30.43,30.43,0,0,1,66.07,80.51"/>
            <path fill="none" stroke-width="8.66px" stroke="#fff" stroke-linecap="round" stroke-linejoin="round" d="M22.26,19.74c-3.36,1.5-4.46,1.38-7.48,2.75-6.15,4.07-5.28,12.26-4,18.33C10.9,46.53,6,50.9,4.49,56.41c-.65,4.07.63,9.3,3.87,12.07,8.25,4,12.57,12.64,15.29,21.51C27.22,95.41,34.42,95.4,40.12,94c7.13-1.38,13.6,2.33,19.85,5.68,8.52,2.85,13.88-5.71,18.46-10.85,4.52-4.34,12.46-4.23,16.53-8,4.65-4.47,3.33-11.33,2.49-17-.29-8,9.58-13.68,6.37-22-1.27-5.37-5.54-8.34-9.8-11-6.34-3.7-6.59-13.16-10.81-18.32-5.95-6.13-13.93-1.74-20.91-2.26-7,.06-12.51-7-19.46-5.77-5.12.79-6.69,3.18-9.37,6.73"/>
            <polyline fill="none" stroke-width="8.66px" stroke="#fff" stroke-linecap="round" stroke-linejoin="round" points="29.8 95 13.98 158.88 54.39 136.85 94.71 158.88 75.78 92.9"/>
        </g>
    </g>
</svg>