<?xml version="1.0" encoding="utf-8"?>
<!-- Generator: Adobe Illustrator 23.0.1, SVG Export Plug-In . SVG Version: 6.00 Build 0)  -->
<svg version="1.1" id="Ebene_1" xmlns="http://www.w3.org/2000/svg" xmlns:xlink="http://www.w3.org/1999/xlink" x="0px" y="0px"
	 viewBox="0 0 36 36" xml:space="preserve">
<title>36x36_Download</title>
<desc>Created with Sketch.</desc>
<g id="Icon-36x36">
	<g id="_x33_6x36_x5F_Download">
		<g id="Download_36x36" transform="translate(4.000000, 0.000000)">
			<path id="Fill-1" fill="#cecece" d="M9.2,26.4c0.7,0,1.3-0.5,1.3-1.2c0-0.7-0.6-1.2-1.3-1.2H2.5V2.5h23.8V24h-6.7
				c-0.7,0-1.3,0.5-1.3,1.2c0,0.7,0.6,1.2,1.3,1.2h9.2V0H0v26.4H9.2z"/>
			<path id="Fill-4" fill="#cecece" d="M20.4,19.3c0.3,0,0.6-0.1,0.9-0.4c0.5-0.5,0.5-1.3,0-1.8l-5.9-6c-0.2-0.2-0.5-0.4-0.8-0.4h-0.1
				c-0.4,0-0.7,0.2-1,0.5l-5.9,5.9c-0.5,0.5-0.5,1.3,0,1.8c0.2,0.2,0.6,0.4,0.9,0.4s0.6-0.1,0.9-0.4l3.8-3.8v19.6
				c0,0.7,0.6,1.3,1.2,1.3c0.7,0,1.2-0.6,1.2-1.3V15l3.8,3.8C19.7,19.1,20,19.3,20.4,19.3z"/>
		</g>
	</g>
</g>
</svg>
