<?xml version="1.0" encoding="UTF-8" standalone="no"?>
<!DOCTYPE svg PUBLIC "-//W3C//DTD SVG 1.1//EN" "http://www.w3.org/Graphics/SVG/1.1/DTD/svg11.dtd">
<svg width="100%" height="100%" viewBox="25 20 355 40" version="1.1" xmlns="http://www.w3.org/2000/svg" xmlns:xlink="http://www.w3.org/1999/xlink" xml:space="preserve" xmlns:serif="http://www.serif.com/" style="fill-rule:evenodd;clip-rule:evenodd;stroke-linejoin:round;stroke-miterlimit:2;">
    <g transform="matrix(4.16667,0,0,4.16667,0,0)">
        <path d="M7.291,10.798C7.344,10.798 7.377,10.764 7.377,10.71L7.377,9.553L8.199,9.553C8.876,9.553 9.308,9.108 9.308,8.451C9.308,7.814 8.886,7.369 8.199,7.369L7.046,7.369C6.994,7.369 6.96,7.403 6.96,7.457L6.96,10.71C6.96,10.764 6.994,10.798 7.046,10.798L7.291,10.798ZM7.377,7.755L8.146,7.755C8.598,7.755 8.876,8.01 8.876,8.451C8.876,8.912 8.612,9.162 8.146,9.162L7.377,9.162L7.377,7.755ZM10.421,8.819C10.503,8.691 10.662,8.603 10.897,8.603C11.296,8.603 11.464,8.843 11.464,9.123L11.464,9.373C11.31,9.329 11.118,9.285 10.859,9.285C10.138,9.285 9.846,9.647 9.846,10.068C9.846,10.505 10.167,10.842 10.7,10.842C11.045,10.842 11.318,10.7 11.467,10.446L11.486,10.446L11.51,10.715C11.517,10.773 11.545,10.798 11.598,10.798L11.771,10.798C11.823,10.798 11.857,10.764 11.857,10.71L11.857,9.113C11.857,8.637 11.526,8.251 10.897,8.251C10.465,8.251 10.128,8.456 10.009,8.784C9.989,8.843 10.018,8.882 10.081,8.882L10.316,8.882C10.364,8.882 10.392,8.863 10.421,8.819ZM10.772,10.5C10.417,10.5 10.253,10.313 10.253,10.063C10.253,9.769 10.46,9.612 10.859,9.612C11.075,9.612 11.262,9.637 11.464,9.7L11.464,9.828C11.464,10.191 11.19,10.5 10.772,10.5ZM13.017,10.798C13.07,10.798 13.103,10.764 13.103,10.71L13.103,9.583C13.103,8.995 13.314,8.662 13.78,8.662L13.886,8.662C13.939,8.662 13.972,8.627 13.972,8.574L13.972,8.353C13.972,8.3 13.939,8.265 13.886,8.265L13.751,8.265C13.449,8.265 13.204,8.437 13.103,8.715L13.084,8.715L13.055,8.378C13.05,8.319 13.022,8.295 12.969,8.295L12.787,8.295C12.734,8.295 12.7,8.329 12.7,8.383L12.7,10.71C12.7,10.764 12.734,10.798 12.787,10.798L13.017,10.798ZM15.527,10.842C15.652,10.842 15.767,10.827 15.824,10.818C15.877,10.808 15.892,10.778 15.892,10.724L15.892,10.539C15.892,10.48 15.858,10.446 15.796,10.461C15.738,10.475 15.68,10.48 15.604,10.48C15.383,10.48 15.282,10.377 15.282,10.137L15.282,8.642L15.796,8.642C15.848,8.642 15.882,8.608 15.882,8.554L15.882,8.383C15.882,8.329 15.848,8.295 15.796,8.295L15.282,8.295L15.282,7.712C15.282,7.648 15.239,7.619 15.181,7.643L14.956,7.731C14.913,7.751 14.889,7.785 14.889,7.834L14.889,8.295L14.557,8.295C14.504,8.295 14.471,8.329 14.471,8.383L14.471,8.554C14.471,8.608 14.504,8.642 14.557,8.642L14.879,8.642L14.879,10.171C14.879,10.588 15.042,10.842 15.527,10.842ZM18.802,10.842C19.57,10.842 19.911,10.264 19.911,9.549C19.911,8.828 19.561,8.251 18.802,8.251C18.043,8.251 17.693,8.828 17.693,9.549C17.693,10.269 18.033,10.842 18.802,10.842ZM18.802,10.475C18.307,10.475 18.1,10.088 18.1,9.549C18.1,9.015 18.302,8.618 18.802,8.618C19.301,8.618 19.503,9.01 19.503,9.549C19.503,10.088 19.301,10.475 18.802,10.475ZM21.075,10.798C21.128,10.798 21.161,10.764 21.161,10.71L21.161,8.637L21.67,8.637C21.723,8.637 21.757,8.603 21.757,8.549L21.757,8.383C21.757,8.329 21.723,8.295 21.67,8.295L21.161,8.295L21.161,7.858C21.161,7.613 21.3,7.476 21.541,7.476C21.589,7.476 21.641,7.481 21.689,7.486C21.747,7.491 21.781,7.461 21.781,7.402L21.781,7.236C21.781,7.182 21.757,7.153 21.704,7.143C21.637,7.133 21.565,7.124 21.473,7.124C21.032,7.124 20.758,7.427 20.758,7.858L20.758,8.295L20.408,8.295C20.355,8.295 20.321,8.329 20.321,8.383L20.321,8.549C20.321,8.603 20.355,8.637 20.408,8.637L20.758,8.637L20.758,10.71C20.758,10.764 20.792,10.798 20.845,10.798L21.075,10.798ZM25.157,10.798C25.815,10.798 26.227,10.436 26.227,9.809C26.227,9.323 25.939,9.088 25.68,8.98L25.68,8.961C25.93,8.848 26.102,8.633 26.102,8.26C26.102,7.696 25.69,7.369 25.123,7.369L23.86,7.369C23.808,7.369 23.774,7.403 23.774,7.457L23.774,10.71C23.774,10.764 23.808,10.798 23.86,10.798L25.157,10.798ZM24.186,7.75L25.075,7.75C25.459,7.75 25.676,7.937 25.676,8.26C25.676,8.662 25.411,8.839 25.022,8.839L24.186,8.839L24.186,7.75ZM24.186,9.21L25.109,9.21C25.536,9.21 25.796,9.407 25.796,9.809C25.796,10.201 25.507,10.412 25.109,10.412L24.186,10.412L24.186,9.21ZM28.649,8.295C28.596,8.295 28.562,8.329 28.562,8.383L28.562,9.819C28.562,10.216 28.39,10.47 27.962,10.47C27.534,10.47 27.361,10.216 27.361,9.819L27.361,8.383C27.361,8.329 27.328,8.295 27.275,8.295L27.045,8.295C26.992,8.295 26.959,8.329 26.959,8.383L26.959,9.887C26.959,10.461 27.366,10.837 27.962,10.837C28.558,10.837 28.965,10.461 28.965,9.887L28.965,8.383C28.965,8.329 28.932,8.295 28.879,8.295L28.649,8.295ZM30.123,10.798C30.176,10.798 30.209,10.764 30.209,10.71L30.209,9.416C30.209,8.911 30.45,8.618 30.858,8.618C31.247,8.618 31.425,8.843 31.425,9.235L31.425,10.71C31.425,10.764 31.458,10.798 31.511,10.798L31.741,10.798C31.794,10.798 31.828,10.764 31.828,10.71L31.828,9.171C31.828,8.598 31.511,8.251 30.968,8.251C30.59,8.251 30.341,8.432 30.211,8.686L30.192,8.686L30.168,8.378C30.161,8.319 30.128,8.295 30.075,8.295L29.893,8.295C29.84,8.295 29.807,8.329 29.807,8.383L29.807,10.71C29.807,10.764 29.84,10.798 29.893,10.798L30.123,10.798ZM33.555,10.842C33.92,10.842 34.165,10.671 34.295,10.451L34.314,10.451L34.353,10.715C34.362,10.769 34.396,10.798 34.448,10.798L34.631,10.798C34.683,10.798 34.717,10.764 34.717,10.71L34.717,7.261C34.717,7.207 34.683,7.173 34.631,7.173L34.4,7.173C34.348,7.173 34.314,7.207 34.314,7.261L34.314,8.642L34.295,8.642C34.165,8.422 33.92,8.251 33.555,8.251C32.863,8.251 32.518,8.804 32.513,9.544C32.518,10.353 32.911,10.842 33.555,10.842ZM33.622,10.475C33.113,10.475 32.921,10.049 32.921,9.544C32.921,9.044 33.113,8.618 33.622,8.618C34.112,8.618 34.324,9.049 34.324,9.544C34.324,10.044 34.112,10.475 33.622,10.475ZM36.523,10.842C37.013,10.842 37.421,10.573 37.522,10.176C37.541,10.107 37.507,10.073 37.45,10.073L37.22,10.073C37.172,10.073 37.138,10.098 37.119,10.147C37.032,10.362 36.816,10.475 36.523,10.475C36.067,10.475 35.831,10.147 35.831,9.671L37.493,9.671C37.546,9.671 37.579,9.637 37.579,9.583L37.579,9.47C37.579,8.774 37.21,8.251 36.518,8.251C35.759,8.251 35.409,8.823 35.409,9.549C35.409,10.284 35.798,10.842 36.523,10.842ZM35.836,9.329C35.851,8.936 36.057,8.618 36.518,8.618C36.956,8.618 37.162,8.931 37.162,9.329L35.836,9.329ZM39.12,10.842C39.649,10.842 40.09,10.578 40.09,10.117C40.09,9.686 39.86,9.47 39.394,9.387L39.01,9.318C38.741,9.269 38.582,9.162 38.582,8.966C38.582,8.72 38.789,8.598 39.087,8.598C39.366,8.598 39.582,8.716 39.63,8.975C39.639,9.029 39.668,9.059 39.721,9.059L39.946,9.059C40.004,9.059 40.033,9.024 40.028,8.97C39.985,8.52 39.606,8.251 39.087,8.251C38.544,8.251 38.194,8.549 38.194,8.966C38.194,9.333 38.415,9.588 38.818,9.666L39.308,9.76C39.572,9.809 39.683,9.951 39.683,10.117C39.683,10.358 39.466,10.475 39.12,10.475C38.803,10.475 38.563,10.333 38.525,10.054C38.52,10 38.491,9.97 38.439,9.97L38.208,9.97C38.151,9.97 38.117,10.005 38.122,10.063C38.18,10.553 38.573,10.842 39.12,10.842ZM41.684,10.842C42.049,10.842 42.294,10.671 42.424,10.451L42.443,10.451L42.481,10.715C42.491,10.769 42.524,10.798 42.577,10.798L42.759,10.798C42.812,10.798 42.846,10.764 42.846,10.71L42.846,7.261C42.846,7.207 42.812,7.173 42.759,7.173L42.529,7.173C42.476,7.173 42.443,7.207 42.443,7.261L42.443,8.642L42.424,8.642C42.294,8.422 42.049,8.251 41.684,8.251C40.992,8.251 40.647,8.804 40.642,9.544C40.647,10.353 41.04,10.842 41.684,10.842ZM41.751,10.475C41.242,10.475 41.05,10.049 41.05,9.544C41.05,9.044 41.242,8.618 41.751,8.618C42.241,8.618 42.452,9.049 42.452,9.544C42.452,10.044 42.241,10.475 41.751,10.475ZM44.009,10.798C44.061,10.798 44.095,10.764 44.095,10.71L44.095,9.583C44.095,8.995 44.306,8.662 44.772,8.662L44.878,8.662C44.931,8.662 44.964,8.627 44.964,8.574L44.964,8.353C44.964,8.3 44.931,8.265 44.878,8.265L44.743,8.265C44.441,8.265 44.196,8.437 44.095,8.715L44.076,8.715L44.047,8.378C44.042,8.319 44.013,8.295 43.961,8.295L43.779,8.295C43.726,8.295 43.692,8.329 43.692,8.383L43.692,10.71C43.692,10.764 43.726,10.798 43.779,10.798L44.009,10.798ZM47.259,8.295C47.206,8.295 47.172,8.329 47.172,8.383L47.172,9.819C47.172,10.216 46.999,10.47 46.572,10.47C46.144,10.47 45.971,10.216 45.971,9.819L45.971,8.383C45.971,8.329 45.938,8.295 45.885,8.295L45.655,8.295C45.602,8.295 45.568,8.329 45.568,8.383L45.568,9.887C45.568,10.461 45.976,10.837 46.572,10.837C47.167,10.837 47.575,10.461 47.575,9.887L47.575,8.383C47.575,8.329 47.541,8.295 47.489,8.295L47.259,8.295ZM49.367,10.842C49.972,10.842 50.299,10.519 50.371,10.049C50.38,9.985 50.347,9.956 50.289,9.956L50.058,9.956C50.006,9.956 49.977,9.985 49.962,10.039C49.905,10.318 49.698,10.48 49.362,10.48C48.858,10.48 48.661,10.073 48.661,9.549C48.661,9.034 48.858,8.618 49.362,8.618C49.689,8.618 49.905,8.784 49.958,9.068C49.967,9.122 49.996,9.152 50.049,9.152L50.279,9.152C50.337,9.152 50.371,9.117 50.361,9.059C50.299,8.598 49.982,8.251 49.362,8.251C48.632,8.251 48.254,8.769 48.254,9.549C48.254,10.338 48.632,10.842 49.367,10.842ZM51.166,7.173C51.113,7.173 51.08,7.207 51.08,7.261L51.08,10.71C51.08,10.764 51.113,10.798 51.166,10.798L51.396,10.798C51.449,10.798 51.483,10.764 51.483,10.71L51.483,7.261C51.483,7.207 51.449,7.173 51.396,7.173L51.166,7.173ZM52.001,9.392L52.942,8.402C52.995,8.349 52.971,8.295 52.894,8.295L52.582,8.295C52.539,8.295 52.506,8.305 52.477,8.339L51.483,9.392L52.52,10.744C52.549,10.778 52.582,10.798 52.626,10.798L52.928,10.798C53,10.798 53.024,10.749 52.981,10.69L52.001,9.392ZM54.427,10.842C54.917,10.842 55.325,10.573 55.426,10.176C55.445,10.107 55.411,10.073 55.354,10.073L55.124,10.073C55.076,10.073 55.042,10.098 55.023,10.147C54.936,10.362 54.72,10.475 54.427,10.475C53.971,10.475 53.735,10.147 53.735,9.671L55.397,9.671C55.45,9.671 55.483,9.637 55.483,9.583L55.483,9.47C55.483,8.774 55.114,8.251 54.422,8.251C53.663,8.251 53.313,8.823 53.313,9.549C53.313,10.284 53.702,10.842 54.427,10.842ZM53.74,9.329C53.754,8.936 53.961,8.618 54.422,8.618C54.859,8.618 55.066,8.931 55.066,9.329L53.74,9.329ZM56.519,10.798C56.571,10.798 56.605,10.764 56.605,10.71L56.605,9.583C56.605,8.995 56.816,8.662 57.282,8.662L57.388,8.662C57.44,8.662 57.474,8.627 57.474,8.574L57.474,8.353C57.474,8.3 57.44,8.265 57.388,8.265L57.253,8.265C56.951,8.265 56.706,8.437 56.605,8.715L56.586,8.715L56.557,8.378C56.552,8.319 56.523,8.295 56.471,8.295L56.288,8.295C56.236,8.295 56.202,8.329 56.202,8.383L56.202,10.71C56.202,10.764 56.236,10.798 56.288,10.798L56.519,10.798ZM59.013,10.842C59.503,10.842 59.911,10.573 60.012,10.176C60.031,10.107 59.998,10.073 59.94,10.073L59.71,10.073C59.662,10.073 59.628,10.098 59.609,10.147C59.523,10.362 59.306,10.475 59.013,10.475C58.557,10.475 58.322,10.147 58.322,9.671L59.983,9.671C60.036,9.671 60.069,9.637 60.069,9.583L60.069,9.47C60.069,8.774 59.7,8.251 59.009,8.251C58.25,8.251 57.9,8.823 57.9,9.549C57.9,10.284 58.288,10.842 59.013,10.842ZM58.326,9.329C58.341,8.936 58.547,8.618 59.009,8.618C59.446,8.618 59.652,8.931 59.652,9.329L58.326,9.329ZM60.774,7.682C60.774,7.736 60.808,7.77 60.861,7.77L61.129,7.77C61.182,7.77 61.216,7.736 61.216,7.682L61.216,7.368C61.216,7.315 61.182,7.28 61.129,7.28L60.861,7.28C60.808,7.28 60.774,7.315 60.774,7.368L60.774,7.682ZM61.11,10.798C61.163,10.798 61.196,10.764 61.196,10.71L61.196,8.383C61.196,8.329 61.163,8.295 61.11,8.295L60.88,8.295C60.827,8.295 60.794,8.329 60.794,8.383L60.794,10.71C60.794,10.764 60.827,10.798 60.88,10.798L61.11,10.798ZM64.304,11.964C65.005,11.964 65.388,11.519 65.388,10.945L65.388,8.383C65.388,8.329 65.355,8.295 65.302,8.295L65.12,8.295C65.067,8.295 65.034,8.324 65.024,8.378L64.986,8.642L64.966,8.642C64.837,8.422 64.592,8.251 64.227,8.251C63.583,8.251 63.19,8.74 63.185,9.549C63.19,10.289 63.535,10.842 64.227,10.842C64.592,10.842 64.837,10.671 64.966,10.451L64.986,10.451L64.986,10.935C64.986,11.313 64.774,11.612 64.304,11.612C63.9,11.612 63.708,11.411 63.66,11.195C63.645,11.146 63.617,11.117 63.564,11.117L63.348,11.117C63.29,11.117 63.257,11.151 63.266,11.21C63.324,11.641 63.713,11.964 64.304,11.964ZM64.294,10.475C63.785,10.475 63.593,10.049 63.593,9.549C63.593,9.044 63.785,8.618 64.294,8.618C64.784,8.618 64.995,9.049 64.995,9.549C64.995,10.044 64.784,10.475 64.294,10.475ZM66.552,10.798C66.604,10.798 66.638,10.764 66.638,10.71L66.638,9.583C66.638,8.995 66.849,8.662 67.315,8.662L67.421,8.662C67.473,8.662 67.507,8.627 67.507,8.574L67.507,8.353C67.507,8.3 67.473,8.265 67.421,8.265L67.286,8.265C66.984,8.265 66.739,8.437 66.638,8.715L66.619,8.715L66.59,8.378C66.585,8.319 66.556,8.295 66.504,8.295L66.321,8.295C66.269,8.295 66.235,8.329 66.235,8.383L66.235,10.71C66.235,10.764 66.269,10.798 66.321,10.798L66.552,10.798ZM69.042,10.842C69.81,10.842 70.151,10.264 70.151,9.549C70.151,8.828 69.801,8.251 69.042,8.251C68.283,8.251 67.933,8.828 67.933,9.549C67.933,10.269 68.273,10.842 69.042,10.842ZM69.042,10.475C68.547,10.475 68.34,10.088 68.34,9.549C68.34,9.015 68.542,8.618 69.042,8.618C69.541,8.618 69.743,9.01 69.743,9.549C69.743,10.088 69.541,10.475 69.042,10.475ZM72.519,8.295C72.467,8.295 72.433,8.329 72.433,8.383L72.433,9.819C72.433,10.216 72.26,10.47 71.832,10.47C71.405,10.47 71.232,10.216 71.232,9.819L71.232,8.383C71.232,8.329 71.198,8.295 71.146,8.295L70.915,8.295C70.863,8.295 70.829,8.329 70.829,8.383L70.829,9.887C70.829,10.461 71.237,10.837 71.832,10.837C72.428,10.837 72.836,10.461 72.836,9.887L72.836,8.383C72.836,8.329 72.802,8.295 72.749,8.295L72.519,8.295ZM73.994,11.92C74.046,11.92 74.08,11.886 74.08,11.832L74.08,10.451L74.099,10.451C74.229,10.671 74.474,10.842 74.839,10.842C75.531,10.842 75.881,10.289 75.881,9.549C75.881,8.74 75.483,8.251 74.839,8.251C74.474,8.251 74.229,8.422 74.099,8.642L74.08,8.642L74.042,8.378C74.032,8.324 73.998,8.295 73.946,8.295L73.763,8.295C73.711,8.295 73.677,8.329 73.677,8.383L73.677,11.832C73.677,11.886 73.711,11.92 73.763,11.92L73.994,11.92ZM74.772,10.475C74.282,10.475 74.07,10.044 74.07,9.549C74.07,9.049 74.282,8.618 74.772,8.618C75.281,8.618 75.473,9.044 75.473,9.549C75.473,10.049 75.281,10.475 74.772,10.475Z" style="fill:rgb(8,9,66);fill-rule:nonzero;"/>
        <path d="M82.232,8.942C82.232,8.569 81.93,8.267 81.557,8.267L79.602,8.267C79.564,8.267 79.534,8.237 79.534,8.2L79.534,7.425C79.534,7.332 79.458,7.257 79.365,7.257L79.027,7.257C78.934,7.257 78.858,7.332 78.858,7.425L78.858,9.956C78.858,10.049 78.933,10.124 79.027,10.125L79.364,10.125C79.457,10.124 79.533,10.049 79.533,9.956L79.533,9.011C79.533,8.974 79.563,8.943 79.6,8.943L81.49,8.943C81.527,8.943 81.557,8.974 81.557,9.011L81.557,10.057C81.557,10.094 81.527,10.124 81.49,10.125L79.702,10.125C79.609,10.125 79.534,10.2 79.534,10.292L79.534,10.631C79.535,10.723 79.61,10.798 79.702,10.798L81.558,10.798C81.93,10.798 82.233,10.496 82.233,10.123L82.232,8.942Z" style="fill:rgb(35,31,32);fill-rule:nonzero;"/>
        <path d="M89.148,8.267L87.293,8.267C86.92,8.267 86.618,8.569 86.618,8.942L86.618,9.953C86.618,10.046 86.694,10.122 86.787,10.122L87.125,10.122C87.218,10.122 87.293,10.046 87.293,9.953L87.293,9.01C87.293,8.972 87.323,8.942 87.361,8.942L89.148,8.942C89.241,8.942 89.317,8.867 89.317,8.774L89.317,8.436C89.317,8.343 89.242,8.267 89.148,8.267Z" style="fill:rgb(255,194,13);fill-rule:nonzero;"/>
        <path d="M86.112,9.955L86.112,7.423C86.112,7.33 86.036,7.255 85.943,7.255L85.605,7.255C85.512,7.255 85.437,7.33 85.437,7.423L85.437,8.2C85.437,8.238 85.407,8.268 85.369,8.268L83.414,8.268C83.041,8.268 82.739,8.57 82.739,8.943L82.739,10.124C82.739,10.496 83.041,10.798 83.413,10.798L85.269,10.798C85.362,10.798 85.438,10.723 85.438,10.63L85.438,10.292C85.438,10.199 85.362,10.124 85.269,10.124L83.48,10.124C83.443,10.124 83.413,10.093 83.413,10.056L83.413,9.01C83.413,8.973 83.443,8.943 83.48,8.943L85.37,8.943C85.407,8.943 85.437,8.973 85.437,9.01L85.437,9.955C85.437,10.048 85.513,10.124 85.606,10.124L85.943,10.124C86.036,10.124 86.112,10.048 86.112,9.955Z" style="fill:rgb(237,24,70);fill-rule:nonzero;"/>
        <path d="M88.811,10.123L89.149,10.123C89.242,10.123 89.317,10.199 89.317,10.292L89.317,10.629C89.317,10.722 89.242,10.798 89.149,10.798L88.811,10.798C88.718,10.798 88.642,10.722 88.642,10.629L88.642,10.292C88.642,10.199 88.718,10.123 88.811,10.123Z" style="fill:rgb(35,31,32);fill-rule:nonzero;"/>
    </g>
</svg>
