<?xml version="1.0" encoding="UTF-8" standalone="no"?>
<!DOCTYPE svg PUBLIC "-//W3C//DTD SVG 1.1//EN" "http://www.w3.org/Graphics/SVG/1.1/DTD/svg11.dtd">
<svg width="100%" height="100%" viewBox="0 0 4809 1258" version="1.1" xmlns="http://www.w3.org/2000/svg" xmlns:xlink="http://www.w3.org/1999/xlink" xml:space="preserve" xmlns:serif="http://www.serif.com/" fill-rule="evenodd" clip-rule="evenodd" stroke-linejoin="round" stroke-miterlimit="2">
    <g transform="matrix(3.125,0,0,3.125,0,0)">
        <g transform="matrix(4.16667,0,0,4.16667,-401.417,-405.525)">
            <path d="M157.54,97.326L114.64,97.326C102.84,97.326 96.34,103.925 96.34,115.625L96.34,137.925C96.34,140.925 97.94,142.525 100.94,142.525L108.24,142.525C111.24,142.525 112.84,140.925 112.84,137.925L112.84,115.625C112.84,114.425 113.54,113.725 114.74,113.725L157.64,113.725C160.64,113.725 162.24,112.125 162.24,109.125L162.24,101.825C162.14,98.925 160.54,97.326 157.54,97.326Z" fill="rgb(237,24,70)" fill-rule="nonzero"/>
        </g>
        <g transform="matrix(4.16667,0,0,4.16667,-401.417,-405.525)">
            <path d="M461.035,176.995L453.734,176.995C450.734,176.995 449.134,178.595 449.134,181.595L449.134,188.694C449.134,191.694 450.734,193.295 453.734,193.295L461.035,193.295C464.035,193.295 465.634,191.694 465.634,188.694L465.634,181.595C465.634,178.595 464.035,176.995 461.035,176.995Z" fill="rgb(237,24,70)"/>
        </g>
        <g transform="matrix(4.16667,0,0,4.16667,-401.417,-405.525)">
            <path d="M213.633,171.607L213.633,163.307C213.633,161.907 212.833,161.107 211.433,161.107L182.833,161.107C181.433,161.107 180.633,161.907 180.633,163.307L180.633,171.607C180.633,173.007 181.433,173.807 182.833,173.807L211.433,173.807C212.833,173.807 213.633,173.007 213.633,171.607ZM145.439,182.117C141.339,182.117 139.139,179.918 139.139,175.817L139.139,159.817C139.139,155.717 141.339,153.518 145.439,153.518L158.539,153.518L158.539,182.117L145.439,182.117ZM126.339,175.817C126.339,187.217 132.539,193.317 143.839,193.317L169.039,193.317C170.439,193.317 171.238,192.518 171.238,191.117L171.238,127.918C171.238,126.518 170.439,125.717 169.039,125.717L160.738,125.717C159.339,125.717 158.539,126.518 158.539,127.918L158.539,142.317L143.839,142.317C132.439,142.317 126.339,148.518 126.339,159.817L126.339,175.817ZM437.54,142.194L423.54,142.194L423.54,127.931C423.54,126.531 422.74,125.731 421.34,125.731L413.04,125.731C411.64,125.731 410.84,126.531 410.84,127.931L410.84,142.194L407.424,142.194C406.025,142.194 405.224,142.995 405.224,144.395L405.224,152.694C405.224,154.095 406.025,154.895 407.424,154.895L410.84,154.895L410.84,175.694C410.84,187.095 417.04,193.194 428.34,193.194L437.54,193.194L437.54,193.095C438.941,193.095 439.74,192.295 439.74,190.895L439.74,183.595C439.74,182.194 438.941,181.395 437.54,181.395L429.54,181.395C425.64,181.395 423.54,179.295 423.54,175.395L423.54,154.895L437.54,154.895C438.94,154.895 439.74,154.095 439.74,152.694L439.74,144.395C439.74,142.995 438.94,142.194 437.54,142.194ZM253.5,142.194L239.5,142.194L239.5,127.931C239.5,126.531 238.7,125.731 237.3,125.731L229,125.731C227.6,125.731 226.8,126.531 226.8,127.931L226.8,142.194L223.384,142.194C221.984,142.194 221.184,142.995 221.184,144.395L221.184,152.694C221.184,154.095 221.984,154.895 223.384,154.895L226.8,154.895L226.8,175.694C226.8,187.095 233,193.194 244.3,193.194L253.5,193.194L253.5,193.095C254.9,193.095 255.7,192.295 255.7,190.895L255.7,183.595C255.7,182.194 254.9,181.395 253.5,181.395L245.5,181.395C241.6,181.395 239.5,179.295 239.5,175.395L239.5,154.895L253.5,154.895C254.9,154.895 255.7,154.095 255.7,152.694L255.7,144.395C255.7,142.995 254.9,142.194 253.5,142.194ZM342.503,142.295L334.203,142.295C332.803,142.295 332.003,143.095 332.003,144.495L332.003,182.095L319.203,182.095C315.103,182.095 312.903,179.895 312.903,175.795L312.903,144.495C312.903,143.095 312.103,142.295 310.703,142.295L302.403,142.295C301.003,142.295 300.203,143.095 300.203,144.495L300.203,175.795C300.203,187.194 306.303,193.395 317.503,193.295L342.503,193.295C343.903,193.295 344.703,192.495 344.703,191.095L344.703,144.495C344.703,143.095 343.903,142.295 342.503,142.295ZM291.803,142.295L291.803,142.194L282.603,142.194C271.303,142.194 265.103,148.295 265.103,159.694L265.103,190.995C265.103,192.395 265.903,193.194 267.303,193.194L275.603,193.194C277.004,193.194 277.803,192.395 277.803,190.995L277.803,159.995C277.803,156.095 279.903,153.995 283.803,153.995L291.803,153.995C293.203,153.995 294.004,153.194 294.004,151.795L294.004,144.495C294.004,143.095 293.203,142.295 291.803,142.295ZM400.429,176.095L400.429,180.095C400.429,186.995 395.829,193.895 385.029,193.895L372.429,193.895C361.029,193.895 356.529,187.795 355.429,180.095C355.23,178.395 356.23,177.795 357.529,177.795L365.23,177.795C366.73,177.795 367.33,178.194 367.73,179.595C368.23,181.194 369.23,183.395 373.029,183.395L383.63,183.395C386.33,183.395 387.83,182.194 387.83,179.295L387.83,177.095C387.83,174.295 386.33,173.095 383.63,173.095L370.929,172.795C360.23,172.595 355.529,165.995 355.529,159.095L355.529,155.395C355.529,148.495 360.13,141.595 370.929,141.595L381.929,141.595C393.329,141.595 397.829,147.694 398.929,155.395C399.13,157.095 398.13,157.694 396.829,157.694L389.13,157.694C387.63,157.694 387.029,157.295 386.63,155.895C386.13,154.295 385.13,152.095 381.329,152.095L372.329,152.095C369.63,152.095 368.13,153.295 368.13,156.194L368.13,157.995C368.13,160.795 369.63,161.895 372.329,161.995L384.929,162.295C395.829,162.395 400.429,169.295 400.429,176.095Z" fill="rgb(8,9,66)"/>
        </g>
    </g>
</svg>
