<svg id="App_Icon" data-name="App Icon" xmlns="http://www.w3.org/2000/svg" viewBox="0 0 800 800"><defs><style>.cls-1{fill:#000e52;}.cls-2{fill:#bee3f8;}.cls-3{fill:#8ec2ed;}.cls-4{fill:#4299e1;}.cls-5{fill:#2b6cb0;}</style></defs><path class="cls-1" d="M276,721l0-1c-.56-17-5.79-27.77-17.49-35.94-8.41-5.87-19.4-5.94-19.86-5.94h-4.76v42.73H210.29V605.09l47.51,0a43.4,43.4,0,0,1,16.12,2.85,36.34,36.34,0,0,1,12.17,7.91,35.43,35.43,0,0,1,7.79,11.88,39.12,39.12,0,0,1,2.77,14.71c0,8.47-2.22,15.46-6.59,20.77a34.08,34.08,0,0,1-9.74,7.94l-2,1.13,1.64,1.64c11.07,11.17,16.94,26.66,17.46,46l0,1Zm-21.34-66.83c12.41,0,18.7-4.79,18.7-14.23,0-8.49-7-13.57-18.7-13.57h-20.8v27.8Z"/><path class="cls-1" d="M79.94,605.36h71.89v22.45h-48.3v23.75h38.55V674H103.53v24.4h48.3v22.45H79.94Z"/><path class="cls-1" d="M157.88,652.09h38.88v21.47H157.88Z"/><path class="cls-1" d="M347.74,722.64a47.4,47.4,0,0,1-17-3,40.43,40.43,0,0,1-13.67-8.54,39.7,39.7,0,0,1-9.1-13.42,46.65,46.65,0,0,1-.17-34.24,39.79,39.79,0,0,1,8.95-13.5A42.3,42.3,0,0,1,330.34,641a44,44,0,0,1,17.08-3.25,46,46,0,0,1,15.21,2.52,35.72,35.72,0,0,1,21.55,20.09,43.32,43.32,0,0,1,3.25,17.4V681a37.79,37.79,0,0,1-.32,4.39H326.27a17.76,17.76,0,0,0,2.44,7.24,18.41,18.41,0,0,0,4.88,5.28,22.52,22.52,0,0,0,6.59,3.25,28.31,28.31,0,0,0,20.66-1.87,22.88,22.88,0,0,0,8.05-7.23l16.59,12.36a40.9,40.9,0,0,1-15.29,13.25Q360.59,722.64,347.74,722.64Zm17.41-52.38q-1.47-7.32-6.83-10.73a21.11,21.11,0,0,0-11.55-3.42,25.19,25.19,0,0,0-6.26.81,20.57,20.57,0,0,0-5.86,2.52,18.2,18.2,0,0,0-4.72,4.4,16.15,16.15,0,0,0-2.84,6.42Z"/><path class="cls-1" d="M397.35,703.44l38.06-43.75H397.84V639.52H464.2v17.57l-38.06,43.59h39.37v20.17H397.35Z"/><path class="cls-1" d="M516.74,722.64a47.45,47.45,0,0,1-17-3,40.38,40.38,0,0,1-13.66-8.54A39.72,39.72,0,0,1,477,697.67a44.55,44.55,0,0,1-3.33-17.49,44,44,0,0,1,3.17-16.75,39.64,39.64,0,0,1,8.95-13.5A42.08,42.08,0,0,1,499.34,641a43.9,43.9,0,0,1,17.08-3.25,45.86,45.86,0,0,1,15.2,2.52,35.77,35.77,0,0,1,21.56,20.09,43.49,43.49,0,0,1,3.25,17.4V681a36,36,0,0,1-.33,4.39H495.27a17.76,17.76,0,0,0,2.44,7.24,18.27,18.27,0,0,0,4.88,5.28,22.4,22.4,0,0,0,6.59,3.25,28.31,28.31,0,0,0,20.66-1.87,22.88,22.88,0,0,0,8-7.23l16.59,12.36a41,41,0,0,1-15.29,13.25Q529.59,722.64,516.74,722.64Zm17.41-52.38q-1.47-7.32-6.84-10.73a21.08,21.08,0,0,0-11.54-3.42,25.27,25.27,0,0,0-6.27.81,20.64,20.64,0,0,0-5.85,2.52,18,18,0,0,0-4.72,4.4,16.17,16.17,0,0,0-2.85,6.42Z"/><path class="cls-1" d="M570.42,754.84V639.52H592.7v9.11q2.76-3.92,8.95-7.4a29.22,29.22,0,0,1,14.63-3.5,34,34,0,0,1,15.13,3.42,38.78,38.78,0,0,1,12.12,9.19,43.24,43.24,0,0,1,8.05,13.5,47.06,47.06,0,0,1,0,32.69,43.24,43.24,0,0,1-8.05,13.5,38.93,38.93,0,0,1-12.12,9.19,34,34,0,0,1-15.13,3.42,29.22,29.22,0,0,1-14.63-3.5q-6.2-3.5-8.95-7.4v43.1Zm41-52.54q9.29,0,14.89-6.26t5.61-15.86q0-9.58-5.61-15.86t-14.89-6.26q-9.27,0-14.88,6.26t-5.61,15.86q0,9.6,5.61,15.86T611.4,702.3Z"/><path class="cls-1" d="M705.91,721.82A39.46,39.46,0,0,1,693.79,720a27.68,27.68,0,0,1-9.84-5.45,25.63,25.63,0,0,1-6.67-9.19,31.93,31.93,0,0,1-2.44-13V659H658.41V639.52h16.43V616.91h22.28v22.61h22.94V659H697.12v29q0,7.49,3.26,10.65T711,701.82a25.79,25.79,0,0,0,9.11-1.47V720a42.92,42.92,0,0,1-6.1,1.3A56,56,0,0,1,705.91,721.82Z"/><path class="cls-2" d="M324.18,458.66a1.5,1.5,0,0,0,0-3,1.5,1.5,0,0,0,0,3Z"/><path class="cls-3" d="M575.11,286.9,485.05,377,400,462l30.36,30.36A123.82,123.82,0,0,0,605.47,317.26Z"/><path class="cls-2" d="M400.59,111.31,369.64,81.43a123.82,123.82,0,0,0-175.11,175.1l30.36,30.37,85.05-85Z"/><path class="cls-4" d="M605.47,81.42a123.82,123.82,0,0,0-175.11,0L400,111.79,224.77,287.21l175,174.87L575.11,286.9l30.36-30.37A123.81,123.81,0,0,0,605.47,81.42Z"/><path class="cls-5" d="M224.89,286.9l-30.36,30.36A123.82,123.82,0,0,0,369.64,492.37l30.47-30.29L315,377Z"/></svg>