<?xml version="1.0" encoding="UTF-8"?>
<svg width="50px" height="58px" viewBox="0 0 50 58" version="1.1" xmlns="http://www.w3.org/2000/svg" xmlns:xlink="http://www.w3.org/1999/xlink">
    <title>H_Wallet_</title>
    <g id="Symbols" stroke="none" stroke-width="1" fill="none" fill-rule="evenodd">
        <g id="teleclinic-logo" transform="translate(-52.000000, -84.000000)" fill="#030045" fill-rule="nonzero">
            <g id="H" transform="translate(52.232848, 84.837624)">
                <path d="M5.96465696,57 C9.25884604,57 11.9293139,54.3295321 11.9293139,51.035343 L11.9293139,32.983368 L11.9293139,32.983368 L37.6049896,32.983368 L37.6049896,51.035343 C37.6049896,54.3295321 40.2754575,57 43.5696466,57 C46.8638356,57 49.5343035,54.3295321 49.5343035,51.035343 L49.5343035,5.96465696 C49.5343035,2.67046789 46.8638356,-6.05132717e-16 43.5696466,0 C40.2754575,6.05132717e-16 37.6049896,2.67046789 37.6049896,5.96465696 L37.6049896,23.1476091 L37.6049896,23.1476091 L11.9293139,23.1476091 L11.9293139,5.96465696 C11.9293139,2.67046789 9.25884604,-6.05132717e-16 5.96465696,0 C2.67046789,6.05132717e-16 -1.29160023e-15,2.67046789 0,5.96465696 L0,51.035343 C-2.26111345e-15,54.3295321 2.67046789,57 5.96465696,57 Z" id="Path"></path>
            </g>
        </g>
    </g>
</svg>