<?xml version="1.0" encoding="UTF-8"?>
<svg width="52px" height="52px" viewBox="0 0 52 52" version="1.1" xmlns="http://www.w3.org/2000/svg" xmlns:xlink="http://www.w3.org/1999/xlink">
    <title>Group_Wallet_</title>
    <g id="Teleclinic" stroke="none" stroke-width="1" fill="none" fill-rule="evenodd">
        <g id="Teleclinic-video" transform="translate(-14.000000, -714.000000)">
            <g id="Group" transform="translate(14.871137, 714.500000)">
                <circle id="Oval-Copy-3" fill="#FFFFFF" cx="25.5" cy="25.5" r="25.5"></circle>
                <g id="􀊱" transform="translate(16.430282, 10.884240)" fill="#030045" fill-rule="nonzero">
                    <path d="M9.07605634,17.6577465 C11.5985915,17.6577465 13.2971831,15.7690141 13.2971831,13.0690141 L13.2971831,4.58873239 C13.2971831,1.87605634 11.5985915,0 9.07605634,0 C6.54084507,0 4.84225352,1.87605634 4.84225352,4.58873239 L4.84225352,13.0690141 C4.84225352,15.7690141 6.54084507,17.6577465 9.07605634,17.6577465 Z M0,13.271831 C0,18.2408451 3.28309859,21.7267606 8.11267606,22.1323944 L8.11267606,25.0859155 L3.40985915,25.0859155 C2.87746479,25.0859155 2.44647887,25.5169014 2.44647887,26.0492958 C2.44647887,26.5816901 2.87746479,27 3.40985915,27 L14.7295775,27 C15.2619718,27 15.6929577,26.5816901 15.6929577,26.0492958 C15.6929577,25.5169014 15.2619718,25.0859155 14.7295775,25.0859155 L10.0267606,25.0859155 L10.0267606,22.1323944 C14.8690141,21.7267606 18.1394366,18.2408451 18.1394366,13.271831 L18.1394366,10.6985915 C18.1394366,10.1661972 17.7211268,9.74788732 17.1887324,9.74788732 C16.656338,9.74788732 16.2253521,10.1661972 16.2253521,10.6985915 L16.2253521,13.1957746 C16.2253521,17.5183099 13.4112676,20.3830986 9.07605634,20.3830986 C4.72816901,20.3830986 1.91408451,17.5183099 1.91408451,13.1957746 L1.91408451,10.6985915 C1.91408451,10.1661972 1.49577465,9.74788732 0.950704225,9.74788732 C0.418309859,9.74788732 0,10.1661972 0,10.6985915 L0,13.271831 Z" id="Shape"></path>
                </g>
            </g>
        </g>
    </g>
</svg>