<?xml version="1.0" encoding="UTF-8"?>
<svg width="35px" height="14px" viewBox="0 0 35 14" version="1.1" xmlns="http://www.w3.org/2000/svg" xmlns:xlink="http://www.w3.org/1999/xlink">
    <title>􀍇_Wallet_</title>
    <g id="Teleclinic" stroke="none" stroke-width="1" fill="none" fill-rule="evenodd">
        <g id="Teleclinic-video" transform="translate(-357.000000, -733.000000)" fill="#FFF7F7" fill-rule="nonzero">
            <g id="􀍇" transform="translate(357.261653, 733.500000)">
                <path d="M17.362759,0 C10.9672301,0 4.95572829,1.34409499 1.95736254,4.34246074 C0.59849727,5.70132601 -0.0809353638,7.3408265 0.00768628401,9.3200433 C0.0667673826,10.5164355 0.436024249,11.5798953 1.13022716,12.2740982 C1.64718677,12.8058281 2.37093023,13.1012336 3.21283588,12.9683011 L8.69260777,12.0377738 C9.51974315,11.9048414 10.0957839,11.6537467 10.4650407,11.2697196 C10.9524598,10.7970708 11.1001625,10.0880976 11.1001625,9.15757028 L11.1001625,7.66577254 C11.1001625,7.42944814 11.2035545,7.25220485 11.3512572,7.1045021 C11.49896,6.92725881 11.7205141,6.85340743 11.8829871,6.80909661 C12.8873658,6.57277221 14.9256637,6.3512181 17.362759,6.3512181 C19.7998543,6.3512181 21.8233819,6.52846139 22.8425309,6.82386688 C22.9902336,6.86817771 23.1970175,6.95679936 23.3594905,7.1045021 C23.492423,7.25220485 23.5810446,7.41467787 23.5958149,7.65100226 L23.6105852,9.15757028 C23.6253554,10.0880976 23.7730582,10.7970708 24.245707,11.2697196 C24.6297341,11.6537467 25.2057748,11.9048414 26.0329102,12.0377738 L31.4388307,12.9535309 C32.3102769,13.1012336 33.0487907,12.7910578 33.6248314,12.2297874 C34.3190343,11.5503548 34.7030614,10.5016653 34.732602,9.30527302 C34.7769128,7.31128595 34.0088585,5.67178546 32.6795338,4.34246074 C29.681168,1.34409499 23.7582879,0 17.362759,0 Z" id="Path"></path>
            </g>
        </g>
    </g>
</svg>