<svg xmlns="http://www.w3.org/2000/svg" viewBox="0 0 212 198.46">
	<title>Element 1sign-me</title>
	<g id="Ebene_2" data-name="Ebene 2">
		<g id="Ebene_1-2" data-name="Ebene 1">
			<path fill="#004f82" fill-rule="evenodd" d="M194,0l17.82,9.47q-31.36,59-62.69,117.9l-17.82-9.48Z"/>
			<path fill="#b2b2b2" fill-rule="evenodd" d="M11.46,186.76H49.31c.16,3.92.06,7.62,0,11.5H0V51c1.65-.52,45.55-.69,49.2-.18V62.14H11.46Z"/>
			<path fill="#b2b2b2" fill-rule="evenodd" d="M187,68.88V198.05c-1.86.48-46.49.58-49.27.1V186.94c6.24-.33,12.52-.09,18.79-.13s12.46,0,19,0c.05-1.07.13-2,.13-2.91q0-35.87,0-71.74c0-7,0-13.92,0-20.87a6.24,6.24,0,0,1,.5-2.77c3.45-6.59,7-13.13,10.48-19.68Z"/>
			<path fill="#008bd2" fill-rule="evenodd" d="M126.87,153.83v8.83H60.77v-8.83Z"/>
			<path fill="#b2b2b2" fill-rule="evenodd" d="M137.66,62.13V50.69h22.62c-.64,1.28-1.16,2.33-1.71,3.37-1.19,2.26-2.36,4.53-3.64,6.75-.32.55-1,1.26-1.5,1.27C148.25,62.17,143.06,62.13,137.66,62.13Z"/>
			<path fill="#004f82" fill-rule="evenodd" d="M129.6,142.37c-.25-6.94-.47-13.43-.72-20.39l18.05,9.58Z"/>
		</g>
	</g>
</svg>